<svg width="34" height="37" viewBox="0 0 34 37" fill="none" xmlns="http://www.w3.org/2000/svg">
<path fill-rule="evenodd" clip-rule="evenodd" d="M17.99 35.7633L17.97 35.7666L17.8516 35.825L17.8183 35.8316L17.795 35.825L17.6766 35.765C17.6589 35.7605 17.6455 35.7639 17.6366 35.775L17.63 35.7916L17.6016 36.505L17.61 36.5383L17.6266 36.56L17.8 36.6833L17.825 36.69L17.845 36.6833L18.0183 36.56L18.0383 36.5333L18.045 36.505L18.0166 35.7933C18.0122 35.7755 18.0033 35.7655 17.99 35.7633ZM18.43 35.575L18.4066 35.5783L18.1 35.7333L18.0833 35.75L18.0783 35.7683L18.1083 36.485L18.1166 36.505L18.13 36.5183L18.465 36.6716C18.4861 36.6772 18.5022 36.6728 18.5133 36.6583L18.52 36.635L18.4633 35.6116C18.4578 35.5905 18.4466 35.5783 18.43 35.575ZM17.2383 35.5783C17.231 35.5739 17.2222 35.5724 17.2138 35.5743C17.2054 35.5761 17.1981 35.5812 17.1933 35.5883L17.1833 35.6116L17.1266 36.635C17.1278 36.655 17.1372 36.6683 17.155 36.675L17.18 36.6716L17.515 36.5166L17.5316 36.5033L17.5366 36.485L17.5666 35.7683L17.5616 35.7483L17.545 35.7316L17.2383 35.5783Z" fill="white"/>
<path fill-rule="evenodd" clip-rule="evenodd" d="M17 0.333313C7.79498 0.333313 0.333313 7.79498 0.333313 17C0.333313 26.205 7.79498 33.6666 17 33.6666C26.205 33.6666 33.6666 26.205 33.6666 17C33.6666 7.79498 26.205 0.333313 17 0.333313ZM11.1666 12.8333C11.1666 12.0673 11.3175 11.3087 11.6107 10.601C11.9038 9.89326 12.3335 9.2502 12.8752 8.70852C13.4169 8.16685 14.0599 7.73717 14.7677 7.44402C15.4754 7.15086 16.2339 6.99998 17 6.99998C17.766 6.99998 18.5246 7.15086 19.2323 7.44402C19.94 7.73717 20.5831 8.16685 21.1248 8.70852C21.6664 9.2502 22.0961 9.89326 22.3893 10.601C22.6824 11.3087 22.8333 12.0673 22.8333 12.8333C22.8333 14.3804 22.2187 15.8641 21.1248 16.9581C20.0308 18.0521 18.5471 18.6666 17 18.6666C15.4529 18.6666 13.9692 18.0521 12.8752 16.9581C11.7812 15.8641 11.1666 14.3804 11.1666 12.8333ZM27.43 25.3066C26.182 26.8756 24.5958 28.1425 22.7899 29.0128C20.9839 29.8832 19.0047 30.3346 17 30.3333C14.9952 30.3346 13.0161 29.8832 11.2101 29.0128C9.40414 28.1425 7.818 26.8756 6.56998 25.3066C9.27165 23.3683 12.9583 22 17 22C21.0416 22 24.7283 23.3683 27.43 25.3066Z" fill="white"/>
</svg>
